# xmcd
#
# Track frame offsets: 
#        180
#        13471
#        27671
#        37598
#        51715
#        65646
#        78290
#        92235
#        104873
#        118791
#        132812
#        146945
#        152589
#        165057
#        177215
#        189624
#        204517
#        217986
#
# Disc length: 3066 seconds
#
# Revision: 0
# Processed by: cddbd v1.5.2PL0 Copyright (c) Steve Scherf et al.
# Submitted via: ExactAudioCopyFreeDBPlugin 1.0
#
DISCID=060bf812
DTITLE=Various Artist - The Voices Of The Great Divas
DYEAR=2005
DGENRE=Jazz
TTITLE0=June Christy - My Heart Belongs To Only You
TTITLE1=Josephine Baker - J'ai Deux Amours
TTITLE2=Peggy Lee - I Ain't got Nobody (And Nobody Cares For Me)
TTITLE3=Ella Fitzgerald - (I Love You) For Sentimental Reasons
TTITLE4=Josephine Baker - Patir Sur Un Bateau Tout Blanc
TTITLE5=Rosemary Clooney - Half As Much
TTITLE6=Ella Fitzgerald - Budella (Blues Skies)
TTITLE7=Judy Garland - Over The Rainbow
TTITLE8=Billie Holiday - April In My Heart
TTITLE9=Jo Stafford - Sometimes I'm Happy
TTITLE10=Ella Fitzgerald - Coochie-Coochie-Coo
TTITLE11=Dinah Shore - Beale Street Blues
TTITLE12=Billie Holiday - Dream Of Life
TTITLE13=Andrew Sisters - Ac-Cent-Tchu-Ate The Positive
TTITLE14=Peggy Lee - For Every Man There's A Woman
TTITLE15=Billie Holiday - My Sweet Hunk O'Trash
TTITLE16=Jo Stafford - This Is Always
TTITLE17=Ella Fitzgerald - Deedle-De-Dum
EXTD=
EXTT0=
EXTT1=
EXTT2=
EXTT3=
EXTT4=
EXTT5=
EXTT6=
EXTT7=
EXTT8=
EXTT9=
EXTT10=
EXTT11=
EXTT12=
EXTT13=
EXTT14=
EXTT15=
EXTT16=
EXTT17=
PLAYORDER=
